<svg width="19" height="30" viewBox="0 0 19 30" fill="none" xmlns="http://www.w3.org/2000/svg">
<path d="M1.2915 11.9234C1.19847 11.4362 1.11698 10.9321 1.05303 10.4167C0.419291 5.38096 1.54727 1.10426 3.57058 0.860692C5.59389 0.61712 7.75676 4.50861 8.3905 9.54431C8.46027 10.1108 8.5126 10.7055 8.54167 11.2436M1.64033 3.61928L4.16947 4.54825M0.878684 6.89334L3.98923 8.20749M3.55899 24.9856H15.4023M9.61724 12.1273C9.20221 11.7423 8.87177 11.2792 8.64591 10.7661C8.42004 10.2529 8.30344 9.70047 8.30325 9.14214C8.30325 8.05094 8.74788 7.00435 9.53932 6.23223C10.3307 5.4601 11.4043 5.02557 12.5243 5.02407C13.6453 5.02407 14.7204 5.45794 15.5131 6.23022C16.3058 7.00251 16.7512 8.04996 16.7512 9.14214C16.752 9.60292 16.6735 10.0605 16.5187 10.4959M12.5242 6.38919C12.5242 6.38919 12.3963 3.80619 14.3964 2.56001M1.13456 12.1273L2.29738 10.6262C2.38152 10.5193 2.48976 10.4327 2.61377 10.3731C2.73778 10.3135 2.87422 10.2825 3.0125 10.2825C3.15078 10.2825 3.28722 10.3135 3.41123 10.3731C3.53524 10.4327 3.64348 10.5193 3.72762 10.6262L4.80315 11.997C4.84487 12.051 4.89894 12.0948 4.96099 12.1249C5.02304 12.155 5.09137 12.1707 5.16071 12.1707C5.23005 12.1707 5.29852 12.155 5.36057 12.1249C5.42262 12.0948 5.47655 12.051 5.51827 11.997L6.59394 10.6262C6.67808 10.5193 6.78633 10.4327 6.91034 10.3731C7.03434 10.3135 7.17078 10.2825 7.30906 10.2825C7.44734 10.2825 7.58378 10.3135 7.70779 10.3731C7.8318 10.4327 7.94004 10.5193 8.02418 10.6262C8.02418 10.6262 8.6056 11.3796 9.04747 11.9517C9.09521 12.0127 9.15687 12.0622 9.22746 12.0963C9.29805 12.1304 9.37565 12.1481 9.45443 12.1481C9.53321 12.1481 9.61095 12.1304 9.68155 12.0963C9.75214 12.0622 9.81379 12.0127 9.86153 11.9517L10.908 10.6375C10.9915 10.5307 11.0993 10.4441 11.2228 10.3845C11.3463 10.3249 11.4824 10.2938 11.6202 10.2938C11.7581 10.2938 11.8942 10.3249 12.0177 10.3845C12.1412 10.4441 12.249 10.5307 12.3325 10.6375L13.4081 12.0084C13.4504 12.0624 13.5049 12.1061 13.5675 12.1363C13.63 12.1664 13.6988 12.1821 13.7686 12.1821C13.8383 12.1821 13.9071 12.1664 13.9696 12.1363C14.0321 12.1061 14.0867 12.0624 14.129 12.0084L15.2047 10.6375C15.2882 10.5307 15.396 10.4441 15.5195 10.3845C15.643 10.3249 15.7789 10.2938 15.9168 10.2938C16.0547 10.2938 16.1907 10.3249 16.3143 10.3845C16.4378 10.4441 16.5455 10.5307 16.6291 10.6375L17.7919 12.1386C17.956 12.3532 18.0456 12.6131 18.0477 12.8807V26.8549C18.0477 27.0431 18.0096 27.2294 17.9357 27.4033C17.8618 27.5772 17.7535 27.7352 17.6169 27.8682C17.4803 28.0013 17.3181 28.1069 17.1397 28.1789C16.9612 28.2509 16.7699 28.288 16.5767 28.288H2.31484C1.92572 28.2865 1.55295 28.1348 1.27835 27.8662C1.00374 27.5976 0.849667 27.234 0.84967 26.8549V12.8693C0.857093 12.598 0.957359 12.3368 1.13456 12.1273Z" stroke="#F1FFF3" stroke-width="1.69934" stroke-linecap="round" stroke-linejoin="round"/>
</svg>
